<?xml version="1.0" encoding="UTF-8"?>
<svg id="_レイヤー_2" data-name="レイヤー 2" xmlns="http://www.w3.org/2000/svg" xmlns:xlink="http://www.w3.org/1999/xlink" viewBox="0 0 1195.12 517.67">
  <defs>
    <style>
      .cls-1 {
        stroke-width: 0px;
      }

      .cls-1, .cls-2 {
        fill: none;
      }

      .cls-3 {
        font-family: AB-plus-90ms-RKSJ-H, AB-plus;
        font-size: 95.42px;
        letter-spacing: .04em;
        stroke-width: .5px;
      }

      .cls-3, .cls-2, .cls-4 {
        stroke-miterlimit: 10;
      }

      .cls-3, .cls-4 {
        fill: #111;
        stroke: #fff;
      }

      .cls-2 {
        stroke: #111;
        stroke-width: 2px;
      }

      .cls-5 {
        clip-path: url(#clippath);
      }
    </style>
    <clipPath id="clippath">
      <rect class="cls-1" x="43.44" y="318.86" width="1143.8" height="198.82"/>
    </clipPath>
  </defs>
  <g id="_レイヤー_1-2" data-name="レイヤー 1">
    <g class="cls-5">
      <g>
        <ellipse class="cls-2" cx="609.29" cy="352.57" rx="509.76" ry="81.18"/>
        <ellipse class="cls-2" cx="609.29" cy="349.97" rx="448.64" ry="49.44"/>
      </g>
    </g>
    <path class="cls-4" d="m131.98,167.09H.5v-14.14h281.7v14.14h-116.64l-66.09,52.31v37.82l149.86,59.38v16.26l-196.87-47.72v-82.35l79.53-35.7Zm-50.9-114.52v27.22l26.86,27.57v16.26l-73.87-26.51v-44.54h47.01Zm129.71,30.4v-37.82h47.36v54.78l-100.03,44.54v-16.26l52.66-45.24Z"/>
    <path class="cls-4" d="m312.7,56.46l61.85-38.17h154.81l61.85,38.17.35,185.56-103.21,55.49v-19.09l55.84-57.61V72.72l-21.56-40.29h-47.36v212.07l-61.85,38.17h-38.88l-61.85-38.17V56.46Zm47.36,171.78l21.56,40.29h24.74l21.56-40.29V32.43h-46.3l-21.56,40.29v155.52Z"/>
    <path class="cls-4" d="m688.39,258.28h-47.01v-84.12l72.81-54.43v18.73l-25.8,52.31v67.51Zm169.65-174.25h-47.01v-24.74l-103.56-43.47V.62l150.57,32.16v51.25Zm-72.81,154.81v-95.08l-69.63-53.02v-18.73l116.99,55.49v127.59l-62.2,38.17h-51.96v-14.14h45.24l21.56-40.29Zm72.46-119.11l72.81,54.43v84.12h-47.01v-67.51l-25.8-52.31v-18.73Zm31.1-116.28v38.52h-14.14V3.45h14.14Zm27.92,0v38.52h-14.14V3.45h14.14Z"/>
    <polygon class="cls-4" points="1062.24 332.86 970.34 271.01 970.34 79.08 1017.35 79.08 1017.35 247.32 1062.24 314.13 1062.24 332.86"/>
    <polygon class="cls-4" points="1147.61 163.91 1116.86 106.3 1116.86 87.57 1194.62 140.58 1194.62 292.21 1147.61 292.21 1147.61 163.91"/>
    <text class="cls-3" transform="translate(376.68 377.25)"><tspan x="0" y="0">SonorV</tspan></text>
  </g>
</svg>