<?xml version="1.0" encoding="UTF-8"?>
<svg id="_レイヤー_2" data-name="レイヤー 2" xmlns="http://www.w3.org/2000/svg" viewBox="0 0 1183.9435 341.9223">
  <defs>
    <style>
      .cls-1 {
        fill: #111;
        stroke: #fff;
        stroke-miterlimit: 10;
      }
    </style>
  </defs>
  <g id="_レイヤー_1-2" data-name="レイヤー 1">
    <path class="cls-1" d="m131.9817,175.5203H.5v-14.1387h281.6977v14.1387h-116.6389l-66.0929,52.3097v37.8189l149.8605,59.3782v16.2596l-196.8705-47.7158v-82.3525l79.5258-35.698Zm-50.8963-114.518v27.2161l26.8624,27.5682v16.2596l-73.8707-26.5086v-44.5353h47.0083Zm129.7146,30.3966v-37.8189h47.3621v54.7843l-100.0255,44.5353v-16.2596l52.6634-45.2412Z"/>
    <path class="cls-1" d="m305.6841,38.6727L367.537.5h154.8098l61.8528,38.1727.3538,185.5585-103.206,55.4919v-19.0863l55.8439-57.611V54.9306l-21.5593-40.2918h-47.3621v212.0671l-61.8528,38.1727h-38.8802l-61.8528-38.1727V38.6727Zm47.3621,171.7753l21.561,40.2918h24.7398l21.561-40.2918V14.6387h-46.3007l-21.561,40.2918v155.5174Z"/>
    <polygon class="cls-1" points="664.2367 316.5452 617.2284 316.5452 617.2284 232.4238 690.0378 177.9933 690.0378 196.7258 664.2367 249.0372 664.2367 316.5452"/>
    <polygon class="cls-1" points="846.2592 132.0463 799.2509 132.0463 799.2509 107.3048 695.6911 63.8308 695.6911 48.6325 846.2592 80.7962 846.2592 132.0463"/>
    <polygon class="cls-1" points="773.4498 286.8561 773.4498 191.7782 703.8209 138.7627 703.8209 120.0302 820.8101 175.5203 820.8101 303.114 758.6053 341.2867 706.6477 341.2867 706.6477 327.1497 751.8888 327.1497 773.4498 286.8561"/>
    <polygon class="cls-1" points="861.4566 177.9933 934.2677 232.4238 934.2677 316.5452 887.2594 316.5452 887.2594 249.0372 861.4566 196.7258 861.4566 177.9933"/>
    <rect class="cls-1" x="862.8708" y="51.4609" width="14.1387" height="38.5247"/>
    <rect class="cls-1" x="890.7928" y="51.4609" width="14.1387" height="38.5247"/>
    <polygon class="cls-1" points="1054.3408 290.0357 962.4451 228.1829 962.4451 36.26 1009.4517 36.26 1009.4517 204.501 1054.3408 271.3032 1054.3408 290.0357"/>
    <polygon class="cls-1" points="1136.4352 151.4218 1105.6865 93.8108 1105.6865 75.0782 1183.4435 128.0954 1183.4435 279.723 1136.4352 279.723 1136.4352 151.4218"/>
  </g>
</svg>